PathFileType        4      (X/Y/Z)      C:\Users\ibrah\OneDrive - KTH\Model Validation - Orthoload\rmr-solver-1.0 - original\rmr-solver-1.0\ExperimentalData\S8R\trc\transformed_MSffkg1.trc         
DataRate	CameraRate	NumFrames	NumMarkers	Units	OrigDataRate	OrigDataStartFrame	OrigNumFrames
50.0	50.0	7	27	mm	50.0	1	566
Frame#	Time	IJ			PX			C7			T8			SC			AA			TS			AI			PC			ACv			ACd			GH			EM			EL			EM2			EL2			US			RS			US2			RS2			MCP2			MCP5			SCREWAA			SCREWTS			SCREWAI			ACvloc			ACdloc			
		X1	Y1	Z1	X2	Y2	Z2	X3	Y3	Z3	X4	Y4	Z4	X5	Y5	Z5	X6	Y6	Z6	X7	Y7	Z7	X8	Y8	Z8	X9	Y9	Z9	X10	Y10	Z10	X11	Y11	Z11	X12	Y12	Z12	X13	Y13	Z13	X14	Y14	Z14	X15	Y15	Z15	X16	Y16	Z16	X17	Y17	Z17	X18	Y18	Z18	X19	Y19	Z19	X20	Y20	Z20	X21	Y21	Z21	X22	Y22	Z22	X23	Y23	Z23	X24	Y24	Z24	X25	Y25	Z25	X26	Y26	Z26	X27	Y27	Z27	
1	0.0	-0.01464592609965791	3.82997174639824E-5	-0.03409091688331858	51.6525674075686	-139.9934790074833	1.12385668923246	-129.141936420623	87.38051385701552	-4.63086686687572	-197.3156064117096	-112.5343453248599	-14.9879284064794	-7.86412552936866	8.590742782350617	23.8800691768598	-121.7455643412857	1.717498522412217	186.9503790288187	-173.3656079741527	4.461415717987525	102.0431470818194	-186.0362845290879	-159.8182739020046	80.54595040509267	-53.64496136986274	5.99379725026305	138.0476457855067	-98.91517353667015	35.63382812656246	169.1725331727987	-98.91517353667015	35.63382812656246	169.1725331727987	-114.9768070608661	-43.69027075851004	194.07707163445	-90.54589935151634	-333.1241631557861	188.3543269156044	-92.58287137085387	-323.0572622334744	259.5532046383868													-24.90345248526083	-543.9022458625177	276.5088087926991	-72.93546355853296	-550.1193142899925	309.3785663068248																						
2	0.02	-0.03965145281000371	-0.1031614309881048	-0.05616354314817881	51.51609305033335	-140.1381906081734	1.029595639684474	-129.1004454084611	87.38170968080881	-4.526898609617453	-197.4431041635554	-112.4760984112795	-14.86838582531515	-7.862230350050201	8.48881783887871	23.86634920860556	-121.5934193142079	1.596831853988737	187.0155852073952	-173.251841269834	4.428450302393617	102.1342941829906	-186.0098236321548	-159.8291434093552	80.52035337446159	-53.51339181353774	5.877782261936153	138.0842293864181	-98.75529330364171	35.51574024404361	169.2523842581317	-98.75529330364171	35.51574024404361	169.2523842581317	-114.8741070666853	-43.83460430220497	193.9989924058291	-90.55971028830642	-333.2770593008808	188.2499611997345	-92.50658094677654	-323.207165887371	259.450746131521													-25.3185869606757	-544.1588427459286	276.4398392257219	-73.42782603430909	-550.3208733936576	309.2041394760589																						
3	0.04	-0.06184828854066433	-0.2059855037665374	-0.0780977347550895	51.38213517578406	-140.2826043669029	0.9336877038390113	-129.0559536076746	87.38352243298367	-4.420423560624732	-197.5680852121422	-112.4170088153799	-14.7470460768587	-7.857198850130767	8.387074598960526	23.85292877418453	-121.4359167147819	1.474572532020356	187.0824711203668	-173.1359350994417	4.395534725385698	102.2293206127962	-185.984184377647	-159.8394706017139	80.49736892644752	-53.37841398835852	5.759896670408048	138.1198871008789	-98.59034063550973	35.39596673208989	169.333399296345	-98.59034063550973	35.39596673208989	169.333399296345	-114.7661629946179	-43.97943463716042	193.9227159585313	-90.57527651600665	-333.4301159355084	188.1466072586077	-92.43104100123824	-323.357334809575	259.3496241017733													-25.73455158920311	-544.4152686768595	276.3704618890531	-73.91932096839002	-550.5212492432447	309.0313298404197																						
4	0.06	-0.08061296696119978	-0.3078540320364209	-0.1033538833799414	51.25177557952274	-140.4259331870053	0.832323372100956	-129.0081334917708	87.38605316066312	-4.313196194982855	-197.6896780234321	-112.3572090309604	-14.62397888943259	-7.848069615782793	8.28612942039108	23.83642966504752	-121.2698970849385	1.352135149053536	187.1499365564334	-173.0167942018325	4.363430612354791	102.3284577536163	-185.9591472243563	-159.8486135239425	80.47902986127697	-53.23811813227178	5.641002335953271	138.1518037771272	-98.41753986002195	35.27571561403408	169.4136138344861	-98.41753986002195	35.27571561403408	169.4136138344861	-114.6481978114122	-44.12320782533909	193.848074952009	-90.59026386551382	-333.58201816036	188.0458387316741	-92.35153053264231	-323.5060041846948	259.2513914572708													-26.14336692604623	-544.6699449518642	276.2980051308668	-74.39929397982117	-550.7185637198307	308.8615795656232																						
5	0.08	-0.09566682337173274	-0.4081734741478227	-0.1353596928416404	51.12597359262034	-140.5672972701516	0.7221028544051373	-128.9571391621529	87.3892112564334	-4.207441367885955	-197.8071549083968	-112.297150038718	-14.4995785973665	-7.834306064115268	8.186642552924106	23.8134715341409	-121.0929888333556	1.231259194893815	187.2166714104941	-172.8936263604728	4.3329262606978	102.4314043191276	-185.9343345924519	-159.8559862443425	80.46712046472346	-53.09109589784315	5.522308686922802	138.1773425916676	-98.23486564544108	35.15652579138291	169.4909119277896	-98.23486564544108	35.15652579138291	169.4909119277896	-114.5161890310521	-44.26415697882692	193.7747818623165	-90.60215801099588	-333.7312598876255	187.9491400205664	-92.263342109843	-323.6512366513819	259.1574834859995													-26.53647032175479	-544.9210359697041	276.2198065532923	-74.85661634637617	-550.910884285821	308.6962252850371																						
6	0.1	-0.1071021969829288	-0.5063534428532329	-0.1773577626256383	51.00555726521545	-140.7057375603458	0.6002967981386821	-128.903642545565	87.39268457378222	-4.105851242857464	-197.9199369564612	-112.2376455605665	-14.37452632594188	-7.815843443700714	8.08931240289302	23.78081422155428	-120.9037799645961	1.114061872861164	187.2811996999109	-172.7659895585889	4.3048622947283	102.5372848707121	-185.9092073531097	-159.8610449748977	80.46315841318818	-52.93653551134047	5.405418082099668	138.1941898478662	-98.04119074244858	35.04031795797797	169.5630951113088	-98.04119074244858	35.04031795797797	169.5630951113088	-114.3671098419498	-44.40024869362183	193.702472935219	-90.608402253536	-333.87608188942	187.8577733496878	-92.1620893491375	-323.7909025444364	259.0690816558861													-26.90529881805408	-545.166436457067	276.1333069956202	-75.2804421864763	-551.096227111036	308.5363240153746																						
7	0.12	-0.115367020851297	-0.6018258972586403	-0.2322520490035384	50.89121656427294	-140.8402459396856	0.4650552157998755	-128.8488035268104	87.39594408778376	-4.011516654994339	-198.0275918872889	-112.1798596186075	-14.249716105544	-7.79308398557975	7.99486315351789	23.73550584154093	-120.7019033880752	1.003045771608679	187.3419469426673	-172.6338095872701	4.28015231063987	102.6446690359485	-185.8830883306674	-159.8632684746135	80.46839539025953	-52.77426360062539	5.292324756588413	138.2004779118722	-97.83635104534072	34.92940025693193	169.6279696607645	-97.83635104534072	34.92940025693193	169.6279696607645	-114.1990900649879	-44.52916169801204	193.6307632721252	-90.60655831495293	-334.0144402595826	187.7726546298811	-92.04402026661177	-323.9226875351054	258.9869886563803													-27.24197692202616	-545.4038025359691	276.0361602185603	-75.66107043612662	-551.2725780140219	308.3824899571168																						
